<?xml version="1.0" encoding="UTF-8"?>
<svg width="35px" height="35px" viewBox="0 0 35 35" version="1.1" xmlns="http://www.w3.org/2000/svg" xmlns:xlink="http://www.w3.org/1999/xlink">
    <title>􀐫</title>
    <g id="Page-1" stroke="none" stroke-width="1" fill="none" fill-rule="evenodd">
        <path d="M17.6013672,34.3472656 C26.7929688,34.3472656 34.3550781,26.7851562 34.3550781,17.5935547 C34.3550781,8.38613281 26.7929688,0.824023438 17.5855469,0.824023438 C8.378125,0.824023438 0.831835937,8.38613281 0.831835937,17.5935547 C0.831835937,26.7851562 8.39394531,34.3472656 17.6013672,34.3472656 Z M17.6013672,30.0441406 C10.6878906,30.0441406 5.15078125,24.4912109 5.15078125,17.5935547 C5.15078125,10.6800781 10.6878906,5.12714844 17.5855469,5.12714844 C24.4832031,5.12714844 30.0519867,10.6800781 30.0519867,17.5935547 C30.0677734,24.4912109 24.4990234,30.0441406 17.6013672,30.0441406 Z M17.5855469,20.0773437 C18.4714844,20.0773437 19.1517578,19.38125 19.1517578,18.4953125 L19.1517578,8.75 C19.1517578,7.8640625 18.4714844,7.18378906 17.5855469,7.18378906 C16.7154297,7.18378906 16.0193359,7.8640625 16.0193359,8.75 L16.0193359,16.9291016 L10.1658203,16.9291016 C9.27988281,16.9291016 8.59960938,17.6251953 8.59960938,18.4953125 C8.59960938,19.38125 9.27988281,20.0773437 10.1658203,20.0773437 L17.5855469,20.0773437 Z" id="􀐫" fill="#246F8D" fill-rule="nonzero"></path>
    </g>
</svg>