<?xml version="1.0" encoding="UTF-8"?>
<svg width="359px" height="359px" viewBox="0 0 359 359" version="1.1" xmlns="http://www.w3.org/2000/svg" xmlns:xlink="http://www.w3.org/1999/xlink">
    <title>Group</title>
    <g id="Page-1" stroke="none" stroke-width="1" fill="none" fill-rule="evenodd">
        <g id="Group">
            <ellipse id="Oval" fill="#4CCFD9" opacity="0.2" cx="179.4" cy="179.29803" rx="179.4" ry="179.29803"></ellipse>
            <ellipse id="Oval" fill="#4CCFD9" opacity="0.4" cx="179.4" cy="179.29803" rx="154.44" ry="154.352217"></ellipse>
            <ellipse id="Oval" fill="#4CCFD9" cx="179.92" cy="179.817734" rx="130" ry="129.926108"></ellipse>
            <path d="M164.234254,230.288759 C168.161265,230.288759 171.246774,228.774055 173.37858,225.632446 L225.607826,146.026323 C227.12253,143.726217 227.739632,141.53831 227.739632,139.518705 C227.739632,134.07699 223.58822,130.037778 217.978204,130.037778 C214.163394,130.037778 211.751087,131.440282 209.39488,135.086792 L164.009853,206.670593 L141.008789,178.452214 C138.876983,175.871607 136.520776,174.749603 133.266967,174.749603 C127.600852,174.749603 123.50554,178.788815 123.50554,184.28663 C123.50554,186.755037 124.234842,188.886843 126.366648,191.29915 L155.314329,226.081247 C157.726636,228.942355 160.531644,230.288759 164.234254,230.288759 Z" id="􀆅" fill="#246F8D" fill-rule="nonzero"></path>
        </g>
    </g>
</svg>