<?xml version="1.0" encoding="UTF-8"?>
<svg width="29px" height="36px" viewBox="0 0 29 36" version="1.1" xmlns="http://www.w3.org/2000/svg" xmlns:xlink="http://www.w3.org/1999/xlink">
    <title>􀙭</title>
    <g id="Page-1" stroke="none" stroke-width="1" fill="none" fill-rule="evenodd">
        <path d="M14.0259766,35.9359375 C22.8537109,35.9359375 28.7546875,30.0033203 28.7546875,21.0964844 C28.7546875,6.49433594 16.1775391,0.356054687 7.60292969,0.356054687 C5.70449219,0.356054687 4.42304688,1.13125 4.42304688,2.57089844 C4.42304688,3.12460937 4.67617187,3.70996094 5.0875,4.20039062 C7.19160156,6.74746094 8.83691406,9.07304688 8.83691406,11.9523437 L8.83691406,12.2371094 L8.83691406,12.2371094 C7.76113281,10.0697266 6.38476562,9.21542969 5.10332031,9.21542969 C4.16992188,9.21542969 3.53710938,9.83242188 3.53710938,10.8765625 C3.53710938,11.5251953 3.66367188,12.2212891 3.66367188,13.1546875 C3.66367188,16.9515625 0.831835937,18.4070313 0.831835937,24.4820312 C0.831835937,31.3480469 6.1,35.9359375 14.0259766,35.9359375 Z M14.4373047,30.1773437 C11.5105469,30.1773437 9.59628906,28.4529297 9.59628906,25.8583984 C9.59628906,23.2005859 11.4314453,22.4253906 11.66875,20.3054688 C11.6845703,20.0207031 11.9693359,19.8466797 12.2541016,20.0998047 C12.8869141,20.7167969 13.3298828,21.5078125 13.6621094,22.5203125 C14.4214844,21.1123047 14.5480469,19.0873047 14.2316406,16.9041016 C14.1525391,16.5402344 14.453125,16.3662109 14.7378906,16.4927734 C18.0601563,17.9324219 19.9427734,21.1914062 19.9427734,24.5136719 C19.9427734,27.709375 17.9335938,30.1773437 14.4373047,30.1773437 Z" id="􀙭" fill="#246F8D" fill-rule="nonzero"></path>
    </g>
</svg>