<?xml version="1.0" encoding="UTF-8"?>
<svg width="21px" height="24px" viewBox="0 0 21 24" version="1.1" xmlns="http://www.w3.org/2000/svg" xmlns:xlink="http://www.w3.org/1999/xlink">
    <title>􀎨</title>
    <g id="Page-1" stroke="none" stroke-width="1" fill="none" fill-rule="evenodd">
        <path d="M17.9453125,16.2167969 C18.296875,15.9824219 18.5605469,15.5429688 18.5605469,14.9472656 C18.5605469,12.8085938 16.8710938,10.7285156 14.3125,9.703125 L14,5.03515625 C15.2695312,4.1953125 16.4121094,3.28710938 16.9101562,2.64257812 C17.1835938,2.29101562 17.3203125,1.91992188 17.3203125,1.58789062 C17.3203125,0.89453125 16.7929688,0.396484375 16.0214844,0.396484375 L5.4453125,0.396484375 C4.67382812,0.396484375 4.14648438,0.89453125 4.14648438,1.58789062 C4.14648438,1.91992188 4.28320312,2.29101562 4.55664062,2.64257812 C5.0546875,3.28710938 6.19726562,4.1953125 7.46679688,5.03515625 L7.40820312,5.90429688 L9.17578125,7.671875 L9.37109375,4.20507812 C9.390625,4.01953125 9.34179688,3.921875 9.1953125,3.84375 C8.00390625,3.22851562 7.07617188,2.52539062 6.8515625,2.29101562 C6.7734375,2.19335938 6.83203125,2.09570312 6.9296875,2.09570312 L14.5371094,2.09570312 C14.6347656,2.09570312 14.6933594,2.19335938 14.6152344,2.29101562 C14.390625,2.52539062 13.4628906,3.22851562 12.2714844,3.84375 C12.125,3.921875 12.0761719,4.01953125 12.0957031,4.20507812 L12.3789062,9.15625 C11.8613281,9.05859375 11.3046875,9.00976562 10.7382812,9.00976562 L10.5136719,9.00976562 L12.4765625,10.9921875 C14.78125,11.2851562 16.5488281,13.2382812 16.5488281,14.5957031 L16.5488281,14.7128906 L16.5488281,14.7128906 L17.9453125,16.2167969 Z M20.015625,21.4804688 C20.328125,21.1679688 20.328125,20.6699219 20.015625,20.3671875 L1.97851562,2.33984375 C1.66601562,2.02734375 1.15820312,2.01757812 0.845703125,2.33007812 C0.54296875,2.6328125 0.54296875,3.16015625 0.845703125,3.453125 L18.8925781,21.4804688 C19.2050781,21.8027344 19.7226562,21.7832031 20.015625,21.4804688 Z M10.7382812,23.9511719 C11.0214844,23.9511719 11.7929688,22.4375 11.7929688,21.1777344 L11.7929688,16.6367188 L12.1640625,16.6367188 L10.2207031,14.6835938 L5.00585938,14.6835938 C4.83984375,14.6835938 4.76171875,14.5859375 4.79101562,14.3808594 C4.92773438,13.3554688 5.80664062,12.3007812 7.15429688,11.6171875 L5.89453125,10.3574219 C4.05859375,11.4707031 2.90625,13.1796875 2.90625,14.9472656 C2.90625,15.875 3.54101562,16.5 4.5078125,16.5 L9.67382812,16.5 L9.67382812,21.1777344 C9.67382812,22.4375 10.4453125,23.9511719 10.7382812,23.9511719 Z" id="􀎨" fill="#FFFFFF" fill-rule="nonzero"></path>
    </g>
</svg>