<?xml version="1.0" encoding="UTF-8"?>
<svg width="16px" height="24px" viewBox="0 0 16 24" version="1.1" xmlns="http://www.w3.org/2000/svg" xmlns:xlink="http://www.w3.org/1999/xlink">
    <title>􀎦</title>
    <g id="Page-1" stroke="none" stroke-width="1" fill="none" fill-rule="evenodd">
        <g id="Artboard" transform="translate(-118.000000, -62.000000)" fill="#FFFFFF" fill-rule="nonzero">
            <path d="M126.2,85.9511719 C126.492969,85.9511719 127.254688,84.4375 127.254688,83.1777344 L127.254688,78.5 L132.420703,78.5 C133.3875,78.5 134.022266,77.875 134.022266,76.9472656 C134.022266,74.8085938 132.332812,72.7285156 129.774219,71.6933594 L129.461719,67.0351562 C130.741016,66.1953125 131.873828,65.2871094 132.371875,64.6425781 C132.645312,64.2910156 132.782031,63.9199219 132.782031,63.5878906 C132.782031,62.8945312 132.254687,62.3964844 131.483203,62.3964844 L120.916797,62.3964844 C120.145313,62.3964844 119.608203,62.8945312 119.608203,63.5878906 C119.608203,63.9199219 119.744922,64.2910156 120.028125,64.6425781 C120.516406,65.2871094 121.658984,66.1953125 122.938281,67.0351562 L122.616016,71.6933594 C120.067188,72.7285156 118.367969,74.8085938 118.367969,76.9472656 C118.367969,77.875 119.002734,78.5 119.969531,78.5 L125.145313,78.5 L125.145313,83.1777344 C125.145313,84.4375 125.907031,85.9511719 126.2,85.9511719 Z M127.850391,71.1464844 C127.313281,71.0585938 126.766406,71.0097656 126.2,71.0097656 C125.633594,71.0097656 125.076953,71.0585938 124.549609,71.1464844 L124.842578,66.2050781 C124.852344,66.0195312 124.803516,65.921875 124.666797,65.84375 C123.475391,65.2285156 122.537891,64.5253906 122.323047,64.2910156 C122.235156,64.1933594 122.29375,64.0957031 122.401172,64.0957031 L129.998828,64.0957031 C130.096484,64.0957031 130.155078,64.1933594 130.076953,64.2910156 C129.852344,64.5253906 128.924609,65.2285156 127.733203,65.84375 C127.586719,65.921875 127.547656,66.0195312 127.557422,66.2050781 L127.850391,71.1464844 Z M131.922656,76.6835938 L120.467578,76.6835938 C120.301563,76.6835938 120.223438,76.5859375 120.252734,76.3808594 C120.506641,74.6425781 122.860156,72.7675781 126.2,72.7675781 C129.530078,72.7675781 131.883594,74.6425781 132.1375,76.3808594 C132.166797,76.5859375 132.088672,76.6835938 131.922656,76.6835938 Z" id="􀎦"></path>
        </g>
    </g>
</svg>