<?xml version="1.0" encoding="UTF-8"?>
<svg width="60px" height="60px" viewBox="0 0 60 60" version="1.1" xmlns="http://www.w3.org/2000/svg" xmlns:xlink="http://www.w3.org/1999/xlink">
    <title>Group</title>
    <g id="Page-1" stroke="none" stroke-width="1" fill="none" fill-rule="evenodd">
        <g id="Group" fill-rule="nonzero">
            <circle id="Oval" fill="#8DE0E6" cx="30" cy="30" r="30"></circle>
            <g id="Artboard" transform="translate(16.000000, 11.000000)" fill="#246F8D">
                <path d="M14.496,36.9522581 C23.58,36.7374194 29.508,30.5190323 29.292,21.436129 C28.932,6.49290323 15.828,0.513225806 7.008,0.728064516 C5.052,0.728064516 3.756,1.59935484 3.792,3.11516129 C3.83482856,3.73011166 4.0890544,4.31168743 4.512,4.76225806 C6.744,7.31645161 8.496,9.65580645 8.568,12.603871 L8.568,12.8783871 L8.568,12.8783871 C7.368,10.6822581 5.976,9.83483871 4.656,9.87064516 C4.20337171,9.85971821 3.76862207,10.0464333 3.46625097,10.3816152 C3.16387988,10.7167971 3.02420044,11.1668435 3.084,11.6132258 C3.084,12.2696774 3.252,12.9858065 3.276,14.0003226 C3.36,17.8912903 0.492,19.4429032 0.636,25.6612903 C0.804,32.583871 6.348,37.1551613 14.496,36.9522581 Z M14.784,31.0441935 C11.772,31.1277419 9.756,29.4090323 9.696,26.7474194 C9.636,24.0858065 11.496,23.1667742 11.688,21.0183871 C11.688,20.72 11.988,20.5409677 12.288,20.7916129 C12.9767065,21.4533612 13.4917475,22.2729964 13.788,23.1787097 C14.5329188,21.3537521 14.692195,19.3443213 14.244,17.4258065 C14.1924576,17.2869795 14.232093,17.1309183 14.3437389,17.0330924 C14.4553849,16.9352664 14.6160347,16.9158345 14.748,16.9841935 C18.0539768,18.3350955 20.2372021,21.5102512 20.304,25.0645161 C20.4698776,26.6095191 19.9594579,28.150826 18.9029146,29.2953528 C17.8463713,30.4398796 16.345838,31.0769877 14.784,31.0441935 L14.784,31.0441935 Z" id="Shape"></path>
            </g>
            <path d="M38,48 C34.1340068,48 31,44.6421356 31,40.5 C31,36.3578644 34.1340068,33 38,33 C41.8659932,33 45,36.3578644 45,40.5 C45,42.4891237 44.2625021,44.396778 42.9497475,45.8033009 C41.6369928,47.2098237 39.8565154,48 38,48 Z" id="Path" fill="#246F8D"></path>
            <path d="M38.0001041,34.3793067 C41.6499302,34.3793067 44.6086988,37.3380742 44.6086988,40.9878989 C44.6086988,44.6377236 41.6499302,47.5964911 38.0001041,47.5964911 C34.3502779,47.5964911 31.3915093,44.6377236 31.3915093,40.9878989 C31.3981104,37.340812 34.3530157,34.3859078 38.0001041,34.3793067 M30.6080401,37.9412499 C29.370517,40.9320709 30.0571538,44.3738987 32.3475904,46.6609005 C34.638027,48.9479022 38.0808824,49.6293739 41.0698445,48.3873654 C44.0588066,47.1453568 46.0048346,44.2246332 46,40.9878989 C46,38.8673015 45.1567599,36.833733 43.656146,35.3353695 C42.1555321,33.8370059 40.1206999,32.9968339 38.0001041,33 C34.7633648,33 31.8455631,34.9504288 30.6080401,37.9412499 Z" id="Shape" fill="#8DE0E6"></path>
            <g id="Page-1-2" transform="translate(34.000000, 37.000000)" fill="#8DE0E6">
                <path d="M3.56571429,7.76 C3.82022205,7.77208692 4.06267917,7.65085836 4.20571429,7.44 L7.81714286,1.92 C7.91511105,1.79222052 7.96742115,1.63529022 7.96571429,1.47428571 C7.9691475,1.2964608 7.8984272,1.12522713 7.77051323,1.00164922 C7.64259925,0.878071307 7.46902944,0.813295894 7.29142857,0.822857143 C7.04292814,0.809421443 6.80989963,0.943860969 6.69714286,1.16571429 L3.55428571,6.12571429 L1.96571429,4.17142857 C1.83864674,4.00471032 1.63799024,3.910786 1.42857143,3.92 C1.24994179,3.91058522 1.07530015,3.97503848 0.94561401,4.09824031 C0.815927872,4.22144214 0.742609209,4.39255117 0.742856516,4.57142857 C0.744892252,4.75576102 0.818685057,4.93204383 0.948571429,5.06285714 L2.94857143,7.47428571 C3.09948409,7.65925582 3.32703589,7.76460388 3.56571429,7.76 Z" id="Path"></path>
            </g>
        </g>
    </g>
</svg>