<?xml version="1.0" encoding="UTF-8"?>
<svg width="20px" height="24px" viewBox="0 0 20 24" version="1.1" xmlns="http://www.w3.org/2000/svg" xmlns:xlink="http://www.w3.org/1999/xlink">
    <title>􀈑</title>
    <g id="Page-1" stroke="none" stroke-width="1" fill="none" fill-rule="evenodd">
        <g id="Artboard" transform="translate(-105.000000, -64.000000)" fill="#FFFFFF" fill-rule="nonzero">
            <path d="M119.701953,87.1738281 C121.283984,87.1738281 122.289844,86.2558594 122.358203,84.6640625 L123.0125,70.7089844 L124.008594,70.7089844 C124.565234,70.7089844 124.994922,70.2890625 124.994922,69.7324219 C124.994922,69.1855469 124.565234,68.765625 124.008594,68.765625 L119.760547,68.765625 L119.760547,67.3300781 C119.760547,65.7675781 118.774219,64.859375 117.055469,64.859375 L113.334766,64.859375 C111.60625,64.859375 110.619922,65.7675781 110.619922,67.3300781 L110.619922,68.765625 L106.391406,68.765625 C105.844531,68.765625 105.405078,69.1855469 105.405078,69.7324219 C105.405078,70.2890625 105.844531,70.7089844 106.391406,70.7089844 L107.3875,70.7089844 L108.041797,84.6738281 C108.119922,86.265625 109.10625,87.1738281 110.707813,87.1738281 L119.701953,87.1738281 Z M117.729297,68.765625 L112.660938,68.765625 L112.660938,67.4082031 C112.660938,66.9492188 112.973438,66.65625 113.48125,66.65625 L116.908984,66.65625 C117.407031,66.65625 117.729297,66.9492188 117.729297,67.4082031 L117.729297,68.765625 Z M119.438281,85.2109375 L110.951953,85.2109375 C110.424609,85.2109375 110.063281,84.8300781 110.04375,84.2539062 L109.399219,70.7089844 L120.971484,70.7089844 L120.35625,84.2539062 C120.336719,84.8398438 119.975391,85.2109375 119.438281,85.2109375 Z M112.328906,83.7167969 C112.787891,83.7167969 113.071094,83.4238281 113.061328,83.0039062 L112.768359,72.9648438 C112.758594,72.5449219 112.455859,72.2617188 112.026172,72.2617188 C111.586719,72.2617188 111.303516,72.5449219 111.313281,72.9746094 L111.60625,83.0136719 C111.625781,83.4335938 111.908984,83.7167969 112.328906,83.7167969 Z M115.2,83.7167969 C115.639453,83.7167969 115.932422,83.4335938 115.932422,83.0136719 L115.932422,72.9648438 C115.932422,72.5449219 115.639453,72.2617188 115.2,72.2617188 C114.760547,72.2617188 114.467578,72.5449219 114.467578,72.9648438 L114.467578,83.0136719 C114.467578,83.4335938 114.760547,83.7167969 115.2,83.7167969 Z M118.071094,83.7167969 C118.491016,83.7167969 118.774219,83.4335938 118.79375,83.0136719 L119.086719,72.9746094 C119.096484,72.5546875 118.813281,72.2714844 118.373828,72.2714844 C117.944141,72.2714844 117.641406,72.5449219 117.631641,72.9648438 L117.338672,83.0039062 C117.328906,83.4238281 117.612109,83.7167969 118.071094,83.7167969 Z" id="􀈑"></path>
        </g>
    </g>
</svg>