<?xml version="1.0" encoding="UTF-8"?>
<svg width="14px" height="21px" viewBox="0 0 14 21" version="1.1" xmlns="http://www.w3.org/2000/svg" xmlns:xlink="http://www.w3.org/1999/xlink">
    <title>Untitled</title>
    <g id="Page-1" stroke="none" stroke-width="1" fill="none" fill-rule="evenodd">
        <path d="M6.63457031,20.152832 C6.89560547,20.152832 7.57587891,18.8001953 7.57587891,17.8905273 L7.57587891,14.0461914 L11.7128906,14.0461914 C12.5355469,14.0461914 13.0892578,13.5083008 13.0892578,12.709375 C13.0892578,10.9375 11.6970703,9.25263672 9.62460937,8.39833984 L9.37148438,4.58564453 C10.4235352,3.88955078 11.325293,3.16181641 11.7287109,2.65556641 C11.9660156,2.35498047 12.084668,2.03857422 12.084668,1.74589844 C12.084668,1.14472656 11.6179688,0.701757812 10.9535156,0.701757812 L2.315625,0.701757812 C1.65117188,0.701757812 1.18447266,1.14472656 1.18447266,1.74589844 C1.18447266,2.03857422 1.303125,2.35498047 1.54042969,2.65556641 C1.9359375,3.16181641 2.84560547,3.88955078 3.89765625,4.58564453 L3.64453125,8.39833984 C1.57207031,9.25263672 0.179882812,10.9375 0.179882812,12.709375 C0.179882812,13.5083008 0.73359375,14.0461914 1.55625,14.0461914 L5.69326172,14.0461914 L5.69326172,17.8905273 C5.69326172,18.8001953 6.37353516,20.152832 6.63457031,20.152832 Z M7.90019531,7.92373047 C7.48886719,7.85253906 7.06962891,7.82089844 6.63457031,7.82089844 C6.19951172,7.82089844 5.78027344,7.85253906 5.36894531,7.92373047 L5.59833984,3.86582031 C5.60625,3.69179688 5.56669922,3.58896484 5.42431641,3.51777344 C4.58583984,3.07480469 3.92929687,2.60019531 3.67617188,2.38662109 C3.61289062,2.31542969 3.65244141,2.23632812 3.73154297,2.23632812 L9.53759766,2.23632812 C9.61669922,2.23632812 9.65625,2.31542969 9.58505859,2.38662109 C9.33984375,2.60019531 8.68330078,3.07480469 7.84482422,3.51777344 C7.70244141,3.58896484 7.65498047,3.69179688 7.67080078,3.86582031 L7.90019531,7.92373047 Z M11.2541016,12.4166992 L2.00712891,12.4166992 C1.89638672,12.4166992 1.84892578,12.353418 1.86474609,12.2189453 C2.09414063,10.8109375 4.04794922,9.40292969 6.63457031,9.40292969 C9.22119141,9.40292969 11.175,10.8109375 11.4043945,12.2189453 C11.4202148,12.353418 11.3727539,12.4166992 11.2541016,12.4166992 Z" id="􀎦" fill="#222C43" fill-rule="nonzero"></path>
    </g>
</svg>